<?xml version="1.0" standalone="no"?>
<!DOCTYPE svg PUBLIC "-//W3C//DTD SVG 20010904//EN"
 "http://www.w3.org/TR/2001/REC-SVG-20010904/DTD/svg10.dtd">
<svg version="1.0" xmlns="http://www.w3.org/2000/svg"
 width="348.000000pt" height="348.000000pt" viewBox="0 0 348.000000 348.000000"
 preserveAspectRatio="xMidYMid meet">
<metadata>
Created by potrace 1.14, written by Peter Selinger 2001-2017
</metadata>
<g transform="translate(0.000000,348.000000) scale(0.100000,-0.100000)"
fill="#000000" stroke="none">
<path d="M1662 3429 c-64 -32 -96 -92 -90 -169 3 -48 10 -67 36 -99 l32 -40
-135 -294 c-129 -279 -137 -294 -160 -289 -38 7 -89 -6 -128 -32 l-34 -23
-229 154 c-199 133 -229 157 -229 179 0 24 20 34 370 179 204 84 379 160 390
168 18 14 18 17 5 31 -14 15 -51 1 -399 -143 -341 -141 -386 -158 -399 -144
-58 58 -171 19 -174 -60 -2 -43 2 -56 25 -84 l24 -28 -171 -415 -171 -415 -47
-2 c-106 -4 -183 -92 -171 -197 6 -54 26 -90 70 -123 32 -25 45 -28 109 -28
56 0 76 4 92 19 21 18 23 17 214 -145 106 -90 199 -169 207 -177 31 -30 62
-45 72 -35 6 6 9 18 7 26 -1 8 -100 97 -218 198 -131 111 -214 188 -213 198 1
9 5 37 9 62 8 60 -9 111 -50 152 l-33 32 173 419 172 419 38 13 37 13 226
-153 226 -152 -2 -75 -1 -74 -189 -106 c-103 -58 -264 -149 -358 -201 -93 -53
-171 -102 -173 -111 -5 -25 33 -30 70 -9 18 11 178 101 356 201 l323 181 34
-27 c19 -16 35 -32 35 -38 0 -5 -57 -220 -127 -477 -124 -459 -127 -468 -152
-468 -41 0 -111 -40 -136 -79 -35 -52 -39 -117 -11 -178 l23 -49 -64 -88 c-63
-85 -74 -122 -36 -114 10 2 47 42 82 89 l63 86 40 -14 c39 -13 94 -10 129 8
13 7 27 -3 59 -39 23 -26 52 -58 64 -72 12 -14 74 -86 137 -160 62 -74 116
-137 119 -140 3 -3 43 -49 89 -103 81 -95 111 -114 117 -75 1 9 -12 34 -29 54
-47 56 -351 410 -409 477 -94 108 -88 95 -64 144 l21 44 65 -6 c63 -5 102 -8
260 -20 41 -3 100 -7 130 -10 86 -7 178 -14 265 -20 44 -3 105 -8 135 -10 30
-3 91 -7 135 -10 108 -8 159 -15 167 -23 25 -26 30 -19 -384 -532 l-133 -165
-47 0 c-25 -1 -52 -6 -60 -12 -10 -7 -138 42 -485 186 -462 191 -473 196 -484
228 -11 35 -52 73 -78 73 -12 0 -50 83 -140 303 -188 459 -192 467 -206 467
-41 0 -32 -28 121 -399 l154 -373 -25 -30 c-14 -16 -25 -35 -26 -41 0 -7 -2
-19 -4 -28 -8 -45 53 -109 105 -109 26 0 62 18 73 36 4 8 13 14 20 14 6 0 219
-86 472 -191 452 -187 462 -192 457 -217 -10 -53 44 -112 103 -112 76 0 130
85 96 149 -8 14 40 79 256 347 264 326 266 329 304 329 48 1 87 22 105 57 19
37 18 67 -5 105 l-20 32 183 417 c223 505 193 473 355 384 l108 -60 -5 -48
c-2 -30 2 -61 11 -84 l15 -36 -86 -73 c-376 -319 -492 -422 -492 -440 0 -12 7
-19 18 -19 11 0 122 88 248 197 373 320 347 300 372 285 9 -6 -11 -64 -79
-228 -50 -120 -97 -232 -104 -249 -7 -16 -37 -86 -65 -155 -29 -69 -54 -129
-56 -135 -2 -5 -28 -9 -57 -7 -37 2 -63 -3 -91 -17 -44 -23 -39 -25 -123 42
-64 50 -101 58 -95 22 2 -11 7 -22 11 -25 4 -3 35 -27 70 -53 53 -42 61 -52
54 -70 -4 -12 -8 -47 -8 -77 l0 -55 -55 -23 c-30 -12 -93 -38 -140 -57 -371
-152 -485 -203 -488 -217 -8 -40 43 -25 371 111 l336 140 31 -29 c48 -44 139
-56 198 -26 106 55 130 194 49 283 l-20 22 126 303 c69 167 142 342 162 389
l36 87 49 4 c139 14 205 180 114 288 -36 42 -80 63 -134 63 -46 0 -130 -34
-130 -53 0 -19 -26 -9 -132 50 -69 39 -108 67 -108 77 0 9 -9 27 -21 39 -20
22 -21 34 -25 356 l-5 333 116 -280 c63 -154 130 -316 148 -359 35 -83 58
-109 78 -89 8 8 -29 109 -145 393 -143 350 -154 383 -142 403 28 43 24 97 -10
130 -36 37 -76 43 -122 19 l-38 -20 -325 134 c-557 230 -514 209 -516 249 -7
125 -147 202 -261 144z m144 -124 c33 -51 -14 -114 -76 -100 -71 15 -68 126 4
137 28 5 53 -7 72 -37z m530 -283 c385 -159 409 -170 411 -195 3 -37 20 -65
52 -85 l27 -17 3 -230 c1 -126 3 -281 4 -343 3 -157 6 -155 -196 -103 -186 49
-595 155 -856 222 -209 55 -241 56 -212 11 4 -7 127 -44 272 -81 734 -190 933
-241 935 -244 1 -1 6 -12 13 -24 13 -26 17 -15 -82 -238 -41 -93 -120 -274
-176 -402 l-102 -231 -32 1 c-29 2 -64 44 -489 591 -403 518 -457 591 -445
605 52 60 40 168 -25 233 l-20 20 58 127 c31 69 79 171 105 227 26 55 61 131
78 167 l30 67 43 -4 c25 -2 60 3 82 12 34 13 40 14 50 1 12 -16 479 -566 586
-690 36 -41 101 -118 144 -170 44 -52 95 -111 114 -131 35 -37 62 -41 62 -9 0
10 -84 116 -188 237 -579 677 -692 813 -686 828 3 9 12 16 18 16 7 0 197 -76
422 -168z m-967 -618 c12 -15 21 -34 21 -44 0 -10 -9 -29 -21 -44 -40 -50
-119 -21 -119 44 0 65 79 94 119 44z m506 -793 c384 -495 452 -587 444 -603
-6 -11 -17 -17 -27 -14 -9 2 -64 8 -122 11 -58 4 -116 8 -130 10 -14 2 -68 6
-120 10 -52 3 -115 8 -140 10 -25 2 -81 7 -125 10 -44 3 -165 12 -268 20 -104
8 -199 15 -211 15 -18 0 -25 9 -35 39 -7 25 -28 54 -56 79 l-45 39 128 469
127 468 50 12 c28 6 56 11 63 10 7 0 217 -264 467 -585z m-1645 164 c40 -36
17 -110 -35 -115 -34 -4 -44 -1 -65 20 -63 63 34 154 100 95z m3123 -6 c30
-37 20 -82 -24 -104 -74 -39 -138 63 -73 114 32 25 71 21 97 -10z m-2329 -661
c34 -48 4 -118 -50 -118 -28 0 -74 41 -74 65 0 20 19 57 34 67 24 16 75 8 90
-14z m1872 -446 c47 -61 -38 -140 -99 -92 -45 36 -33 104 23 122 20 7 60 -9
76 -30z"/>
</g>
</svg>
